<?xml version="1.0" encoding="utf-8"?>
<!-- Generator: Adobe Illustrator 27.0.1, SVG Export Plug-In . SVG Version: 6.00 Build 0)  -->
<svg version="1.1" id="Layer_1" xmlns="http://www.w3.org/2000/svg" xmlns:xlink="http://www.w3.org/1999/xlink" x="0px" y="0px"
	 viewBox="0 0 295 144" style="enable-background:new 0 0 295 144;" xml:space="preserve">
<style type="text/css">
	.st0{display:none;}
	.st1{fill:#FFFFFF;}
	.st2{fill:none;}
	.st3{enable-background:new    ;}
	.st4{fill:#FD5700;}
</style>
<g id="Layer_2_00000031906374066466022590000004229950682538003630_">
	<rect y="40" class="st0" width="295" height="64"/>
</g>
<image style="display:none;overflow:visible;enable-background:new    ;" width="295" height="64" xlink:href="AF200DA8.png"  transform="matrix(1 0 0 1 0 40)">
</image>
<g>
	<path class="st1" d="M293.8,52.6h-7.2c0-2.4-2-4.4-4.4-4.4V41C288.6,41,293.8,46.2,293.8,52.6z"/>
</g>
<g>
	<path class="st1" d="M257.8,52.6h-7.2c0-6.4,5.2-11.6,11.6-11.6v7.2C259.7,48.2,257.8,50.2,257.8,52.6z"/>
</g>
<g>
	<g>
		<path class="st1" d="M100.5,53.8h-7.2c0-3.1-2.5-5.7-5.7-5.7v-7.2C94.7,40.9,100.5,46.7,100.5,53.8z"/>
	</g>
	<g>
		<path class="st1" d="M87.6,66.7v-7.2c3.1,0,5.7-2.5,5.7-5.7h7.2C100.5,60.9,94.7,66.7,87.6,66.7z"/>
	</g>
</g>
<g>
	<path class="st1" d="M44.3,48.1H4.7c-2,0-3.6-1.6-3.6-3.6l0,0c0-2,1.6-3.6,3.6-3.6h39.6c2,0,3.6,1.6,3.6,3.6l0,0
		C47.9,46.5,46.3,48.1,44.3,48.1z"/>
</g>
<g>
	<path class="st1" d="M20.9,77.4V57.3c0-2,1.6-3.6,3.6-3.6l0,0c2,0,3.6,1.6,3.6,3.6v20.2c0,2-1.6,3.6-3.6,3.6l0,0
		C22.5,81,20.9,79.4,20.9,77.4z"/>
</g>
<g>
	<path class="st1" d="M87.8,48.1H63.5c-2,0-3.6-1.6-3.6-3.6l0,0c0-2,1.6-3.6,3.6-3.6h24.4c2,0,3.6,1.6,3.6,3.6l0,0
		C91.4,46.5,89.8,48.1,87.8,48.1z"/>
</g>
<g>
	<path class="st1" d="M90.5,66.7H63.5c-2,0-3.6-1.6-3.6-3.6l0,0c0-2,1.6-3.6,3.6-3.6h27.1c2,0,3.6,1.6,3.6,3.6l0,0
		C94.1,65.1,92.5,66.7,90.5,66.7z"/>
</g>
<g>
	<path class="st1" d="M67.1,63.1v14.4c0,2-1.6,3.6-3.6,3.6l0,0c-2,0-3.6-1.6-3.6-3.6V63.1c0-2,1.6-3.6,3.6-3.6l0,0
		C65.4,59.5,67.1,61.1,67.1,63.1z"/>
</g>
<g>
	<path class="st1" d="M90.2,61.2l10,14.3c1.1,1.6,0.7,3.9-0.9,5l0,0c-1.6,1.1-3.9,0.7-5-0.9l-10-14.3c-1.1-1.6-0.7-3.9,0.9-5l0,0
		C86.8,59.2,89.1,59.6,90.2,61.2z"/>
</g>
<g>
	<path class="st1" d="M124.3,44.5v33.1c0,2-1.6,3.6-3.6,3.6l0,0c-2,0-3.6-1.6-3.6-3.6V44.5c0-2,1.6-3.6,3.6-3.6l0,0
		C122.6,40.9,124.3,42.6,124.3,44.5z"/>
</g>
<g>
	<path class="st1" d="M180.4,48.2h-39.6c-2,0-3.6-1.6-3.6-3.6l0,0c0-2,1.6-3.6,3.6-3.6h39.6c2,0,3.6,1.6,3.6,3.6l0,0
		C183.9,46.6,182.3,48.2,180.4,48.2z"/>
</g>
<g>
	<path class="st1" d="M156.9,77.6V57.4c0-2,1.6-3.6,3.6-3.6l0,0c2,0,3.6,1.6,3.6,3.6v20.2c0,2-1.6,3.6-3.6,3.6l0,0
		C158.6,81.2,156.9,79.5,156.9,77.6z"/>
</g>
<g>
	<path class="st1" d="M250.6,77.6V53c0-2,1.6-3.6,3.6-3.6l0,0c2,0,3.6,1.6,3.6,3.6v24.6c0,2-1.6,3.6-3.6,3.6l0,0
		C252.2,81.2,250.6,79.5,250.6,77.6z"/>
</g>
<g>
	<path class="st1" d="M286.6,77.6V53c0-2,1.6-3.6,3.6-3.6l0,0c2,0,3.6,1.6,3.6,3.6v24.6c0,2-1.6,3.6-3.6,3.6l0,0
		C288.2,81.2,286.6,79.5,286.6,77.6z"/>
</g>
<g>
	<path class="st1" d="M261.4,41H283c2,0,3.6,1.6,3.6,3.6l0,0c0,2-1.6,3.6-3.6,3.6h-21.7c-2,0-3.6-1.6-3.6-3.6l0,0
		C257.8,42.7,259.4,41,261.4,41z"/>
</g>
<g>
	<path class="st1" d="M204.8,41h21.7c2,0,3.6,1.6,3.6,3.6l0,0c0,2-1.6,3.6-3.6,3.6h-21.7c-2,0-3.6-1.6-3.6-3.6l0,0
		C201.2,42.7,202.8,41,204.8,41z"/>
</g>
<g>
	<path class="st1" d="M204.6,73.9H225c2,0,3.6,1.6,3.6,3.6l0,0c0,2-1.6,3.6-3.6,3.6h-20.4c-2,0-3.6-1.6-3.6-3.6l0,0
		C201.1,75.6,202.7,73.9,204.6,73.9z"/>
</g>
<g>
	<path class="st1" d="M229.9,70.1v-18c0-2,1.6-3.6,3.6-3.6l0,0c2,0,3.6,1.6,3.6,3.6v18c0,2-1.6,3.6-3.6,3.6l0,0
		C231.5,73.7,229.9,72.1,229.9,70.1z"/>
</g>
<g>
	<path class="st1" d="M193.4,70.1v-18c0-2,1.6-3.6,3.6-3.6l0,0c2,0,3.6,1.6,3.6,3.6v18c0,2-1.6,3.6-3.6,3.6l0,0
		C195.1,73.7,193.4,72.1,193.4,70.1z"/>
</g>
<g>
	<path class="st1" d="M205,81.1c-6.4,0-11.6-5.2-11.6-11.6h7.2c0,2.4,2,4.4,4.4,4.4V81.1z"/>
</g>
<g>
	<path class="st1" d="M225.5,81.1V74c2.4,0,4.4-2,4.4-4.4h7.2C237,75.9,231.8,81.1,225.5,81.1z"/>
</g>
<g>
	<path class="st1" d="M237,52.6h-7.2c0-2.4-2-4.4-4.4-4.4V41C231.8,41,237,46.2,237,52.6z"/>
</g>
<g>
	<path class="st1" d="M200.6,52.6h-7.2c0-6.4,5.2-11.6,11.6-11.6v7.2C202.6,48.2,200.6,50.2,200.6,52.6z"/>
</g>
<g>
	<g>
		<rect x="40.3" y="92.7" class="st2" width="86" height="11.6"/>
	</g>
	<g class="st3">
		<path class="st4" d="M41.5,93.2h3c1.9,0,3.4,1.1,3.4,3c0,1.2-0.8,2.2-2,2.6l2.4,4.1h-2l-2.1-3.8h-0.8v3.8h-1.8V93.2z M44.3,97.8
			c1.1,0,1.7-0.7,1.7-1.6c0-1-0.5-1.5-1.7-1.5h-1v3.2H44.3z"/>
		<path class="st4" d="M53.4,98.1c0-2.4,1-5,4.3-5s4.3,2.6,4.3,5c0,2.4-1,5-4.3,5S53.4,100.4,53.4,98.1z M60.1,98.1
			c0-1.9-0.5-3.6-2.4-3.6c-1.9,0-2.4,1.7-2.4,3.6c0,1.9,0.5,3.6,2.4,3.6C59.6,101.7,60.1,100,60.1,98.1z"/>
		<path class="st4" d="M67.9,93.2h2.9c2.4,0,3.6,1,3.6,2.5c0,0.8-0.5,1.5-1.4,1.9c1.2,0.5,1.8,1.4,1.8,2.4c0,1.4-1.1,2.9-3.6,2.9
			h-3.2V93.2z M70.9,97.2c1,0,1.6-0.5,1.6-1.3c0-0.7-0.4-1.3-1.6-1.3h-1.1v2.6H70.9z M71,101.5c1.4,0,1.8-0.7,1.8-1.5
			c0-0.8-0.5-1.5-1.7-1.5h-1.4v3.1H71z"/>
		<path class="st4" d="M80.1,98.1c0-2.4,1-5,4.3-5s4.3,2.6,4.3,5c0,2.4-1,5-4.3,5S80.1,100.4,80.1,98.1z M86.8,98.1
			c0-1.9-0.5-3.6-2.4-3.6c-1.9,0-2.4,1.7-2.4,3.6c0,1.9,0.5,3.6,2.4,3.6C86.3,101.7,86.8,100,86.8,98.1z"/>
		<path class="st4" d="M96.4,94.6h-2.6v-1.4h7.1v1.4h-2.6v8.3h-1.8V94.6z"/>
		<path class="st4" d="M106.5,93.2h1.8v9.7h-1.8V93.2z"/>
		<path class="st4" d="M118.9,93.1c1.2,0,2.1,0.2,2.9,0.6l-0.5,1.3c-0.7-0.3-1.4-0.4-2.3-0.4c-1.9,0-2.9,1.3-2.9,3.6
			c0,2.3,0.9,3.6,2.9,3.6c0.9,0,1.6-0.2,2.3-0.5l0.5,1.3c-0.8,0.4-1.8,0.7-3,0.7c-3.2,0-4.7-2.1-4.7-5
			C114.2,95.3,115.8,93.1,118.9,93.1z"/>
	</g>
</g>
<g class="st3">
	<path class="st4" d="M135.4,93.2h5.9l-0.1,1.4h-3.9v2.6h3.6v1.4h-3.6v2.8h4l0.1,1.4h-6V93.2z"/>
	<path class="st4" d="M147.3,93.2h1.5l4.2,6.6c-0.1-0.5-0.1-1.4-0.1-1.9v-4.7h1.8v9.7h-1.5l-4.1-6.4c0.1,0.5,0.1,1.3,0.1,1.7v4.7
		h-1.8V93.2z"/>
	<path class="st4" d="M160.9,93.2h3.4c3.3,0,4.4,2.6,4.4,4.8c0,2.3-1.1,4.8-4.4,4.8h-3.4V93.2z M164.1,101.5c2,0,2.6-1.6,2.6-3.4
		c0-1.8-0.5-3.4-2.6-3.4h-1.4v6.9H164.1z"/>
	<path class="st4" d="M174.1,98c0-2.4,1-5,4.3-5c3.3,0,4.3,2.6,4.3,5c0,2.4-1,5-4.3,5C175.1,103,174.1,100.4,174.1,98z M180.8,98
		c0-1.9-0.5-3.6-2.4-3.6c-1.9,0-2.4,1.7-2.4,3.6c0,1.9,0.5,3.6,2.4,3.6C180.3,101.6,180.8,100,180.8,98z"/>
	<path class="st4" d="M188.6,100.9c0.7,0.4,1.6,0.8,2.4,0.8c1,0,1.7-0.5,1.7-1.4c0-1.8-4.4-1.5-4.4-4.5c0-1.6,1.5-2.7,3.4-2.7
		c1.1,0,2,0.3,2.8,0.7l-0.7,1.2c-0.6-0.3-1.3-0.5-2.1-0.5c-1,0-1.5,0.5-1.5,1.3c0,1.9,4.4,1.5,4.4,4.5c0,1.8-1.8,2.8-3.6,2.8
		c-1.1,0-2.2-0.4-3.1-0.9L188.6,100.9z"/>
	<path class="st4" d="M204.8,93c1.2,0,2.1,0.2,2.9,0.6l-0.5,1.3c-0.7-0.3-1.4-0.4-2.3-0.4c-1.9,0-2.9,1.3-2.9,3.6
		c0,2.3,0.9,3.6,2.9,3.6c0.9,0,1.6-0.2,2.3-0.5l0.5,1.3c-0.8,0.4-1.8,0.7-3,0.7c-3.2,0-4.7-2.1-4.7-5C200.1,95.2,201.7,93,204.8,93z
		"/>
	<path class="st4" d="M213.2,98c0-2.4,1-5,4.3-5s4.3,2.6,4.3,5c0,2.4-1,5-4.3,5S213.2,100.4,213.2,98z M219.9,98
		c0-1.9-0.5-3.6-2.4-3.6c-1.9,0-2.4,1.7-2.4,3.6c0,1.9,0.5,3.6,2.4,3.6C219.4,101.6,219.9,100,219.9,98z"/>
	<path class="st4" d="M227.7,93.2h3c1.9,0,3.4,1.1,3.4,3c0,1.9-1.6,3-3.5,3h-1.2v3.7h-1.8V93.2z M230.6,97.8c1.2,0,1.6-0.7,1.6-1.6
		c0-0.9-0.4-1.6-1.6-1.6h-1.1v3.2H230.6z"/>
	<path class="st4" d="M242.2,99.3l-3.1-6l1.9-0.2l1.5,3.1c0.2,0.4,0.4,1,0.7,1.5c0.2-0.6,0.5-1.1,0.7-1.5l1.4-3h1.9l-3.1,6.1v3.6
		h-1.8V99.3z"/>
</g>
</svg>
