<svg xmlns="http://www.w3.org/2000/svg" width="290.944" height="120" viewBox="0 -40 290.944 80">
  <g id="Group_22" data-name="Group 22" transform="translate(-81.917 -27.684)">
    <g id="Group_19" data-name="Group 19">
      <g id="Group_18" data-name="Group 18">
        <path id="Path_94" data-name="Path 94" d="M83.551,77.582h-.064q.133,2.136.133,4v5.583h-1.7V75.69h2.646l3.188,9.131H87.8L91.08,75.69h2.654V87.168h-1.8V81.492q0-.856.042-2.229c.029-.917.053-1.473.073-1.665h-.062l-3.447,9.57H86.878Z" fill="#ee4423"></path>
        <path id="Path_95" data-name="Path 95" d="M106.107,87.168V75.69H112.6v1.585h-4.618V80.4h4.328V81.97h-4.328v3.6H112.6v1.594Z" fill="#ee4423"></path>
        <path id="Path_96" data-name="Path 96" d="M132.181,85.665a6.337,6.337,0,0,1-4.547,1.5h-3.21V75.69h3.548a5.87,5.87,0,0,1,4.264,1.476,5.514,5.514,0,0,1,1.526,4.153A5.716,5.716,0,0,1,132.181,85.665Zm-4.255-8.406H126.3V85.59h1.333q4.147,0,4.149-4.209Q131.783,77.261,127.926,77.259Z" fill="#ee4423"></path>
        <path id="Path_97" data-name="Path 97" d="M145.57,75.69h1.877V87.168H145.57Z" fill="#ee4423"></path>
        <path id="Path_98" data-name="Path 98" d="M162.158,78.28a6.011,6.011,0,0,0-.036,6.36,3.153,3.153,0,0,0,2.579,1.085,6.752,6.752,0,0,0,1.413-.146q.684-.147,1.421-.372v1.609a8.626,8.626,0,0,1-3.059.509A4.9,4.9,0,0,1,160.6,85.8a6.4,6.4,0,0,1-1.351-4.37,7.084,7.084,0,0,1,.657-3.133,4.673,4.673,0,0,1,1.9-2.056,5.733,5.733,0,0,1,2.913-.715,7.21,7.21,0,0,1,3.25.739l-.678,1.561a10.423,10.423,0,0,0-1.226-.483,4.488,4.488,0,0,0-1.364-.208A3.093,3.093,0,0,0,162.158,78.28Z" fill="#ee4423"></path>
        <path id="Path_99" data-name="Path 99" d="M185.329,83.98H180.94l-1.123,3.188h-1.979l4.295-11.527h2.041l4.294,11.527h-1.992Zm-1.571-4.742q-.117-.315-.326-.989c-.139-.45-.232-.78-.285-.99a18.054,18.054,0,0,1-.62,2.112l-1.036,2.993h3.342Z" fill="#ee4423"></path>
        <path id="Path_100" data-name="Path 100" d="M199.329,75.69h1.878v9.869h4.861v1.609h-6.739Z" fill="#ee4423"></path>
        <path id="Path_101" data-name="Path 101" d="M232.779,87.168H230.9V75.69h3.241a5.329,5.329,0,0,1,3.292.832,2.988,2.988,0,0,1,1.067,2.513,3.14,3.14,0,0,1-2.229,3.052l3.241,5.081h-2.134l-2.75-4.585h-1.853Zm1.3-6.139a2.976,2.976,0,0,0,1.9-.487,1.763,1.763,0,0,0,.589-1.445,1.55,1.55,0,0,0-.636-1.4,3.472,3.472,0,0,0-1.915-.425h-1.242v3.754Z" fill="#ee4423"></path>
        <path id="Path_102" data-name="Path 102" d="M259.316,85.771a5.89,5.89,0,0,1-7.961.011A6.311,6.311,0,0,1,249.96,81.4a6.224,6.224,0,0,1,1.4-4.366,5.17,5.17,0,0,1,4-1.523,5.059,5.059,0,0,1,3.958,1.548,7.486,7.486,0,0,1,0,8.715Zm-6.5-1.142a3.481,3.481,0,0,0,5.061.011,6.527,6.527,0,0,0,.006-6.431,2.987,2.987,0,0,0-2.517-1.091,3.051,3.051,0,0,0-2.548,1.091,6.434,6.434,0,0,0,0,6.42Z" fill="#ee4423"></path>
        <path id="Path_103" data-name="Path 103" d="M275.939,75.69a6.473,6.473,0,0,1,3.427.69,2.421,2.421,0,0,1,1.056,2.183,2.645,2.645,0,0,1-.518,1.672,2.316,2.316,0,0,1-1.492.841v.077a2.981,2.981,0,0,1,1.78.9,2.73,2.73,0,0,1,.569,1.82,2.951,2.951,0,0,1-1.081,2.422,4.651,4.651,0,0,1-3,.874h-4.144V75.69Zm.275,4.741a3.1,3.1,0,0,0,1.72-.371,1.434,1.434,0,0,0,.542-1.269,1.273,1.273,0,0,0-.587-1.171,3.644,3.644,0,0,0-1.857-.361h-1.625v3.172Zm-1.807,5.159H276.4a2.94,2.94,0,0,0,1.78-.452,1.67,1.67,0,0,0,.6-1.423,1.513,1.513,0,0,0-.614-1.329,3.236,3.236,0,0,0-1.859-.431h-1.9Z" fill="#ee4423"></path>
        <path id="Path_104" data-name="Path 104" d="M301.28,85.771a5.889,5.889,0,0,1-7.96.011,6.311,6.311,0,0,1-1.4-4.385,6.224,6.224,0,0,1,1.4-4.366,5.171,5.171,0,0,1,4-1.523,5.06,5.06,0,0,1,3.958,1.548,7.484,7.484,0,0,1-.005,8.715Zm-6.5-1.142a3.481,3.481,0,0,0,5.061.011,6.527,6.527,0,0,0,.006-6.431,2.986,2.986,0,0,0-2.516-1.091,3.055,3.055,0,0,0-2.549,1.091,6.434,6.434,0,0,0,0,6.42Z" fill="#ee4423"></path>
        <path id="Path_105" data-name="Path 105" d="M316.1,87.168V77.3h-3.376V75.69h8.629V77.3h-3.376v9.869Z" fill="#ee4423"></path>
        <path id="Path_106" data-name="Path 106" d="M332.459,75.69h1.875V87.168h-1.875Z" fill="#ee4423"></path>
        <path id="Path_107" data-name="Path 107" d="M349.047,78.28a6.008,6.008,0,0,0-.035,6.36,3.146,3.146,0,0,0,2.579,1.085A6.757,6.757,0,0,0,353,85.579q.684-.147,1.421-.372v1.609a8.645,8.645,0,0,1-3.061.509,4.9,4.9,0,0,1-3.872-1.527,6.4,6.4,0,0,1-1.351-4.37,7.083,7.083,0,0,1,.655-3.133,4.685,4.685,0,0,1,1.9-2.056,5.739,5.739,0,0,1,2.913-.715,7.2,7.2,0,0,1,3.25.739l-.675,1.561a10.541,10.541,0,0,0-1.229-.483,4.478,4.478,0,0,0-1.361-.208A3.094,3.094,0,0,0,349.047,78.28Z" fill="#ee4423"></path>
        <path id="Path_108" data-name="Path 108" d="M371.751,86.453a4.807,4.807,0,0,1-3.053.872,7.279,7.279,0,0,1-3.187-.6V84.945a8.53,8.53,0,0,0,1.667.583,7.1,7.1,0,0,0,1.645.212,2.625,2.625,0,0,0,1.647-.425A1.383,1.383,0,0,0,371,84.177a1.426,1.426,0,0,0-.487-1.091,7.29,7.29,0,0,0-2.01-1.06,5.293,5.293,0,0,1-2.214-1.453,3.071,3.071,0,0,1-.644-1.963,2.75,2.75,0,0,1,1.02-2.261,4.226,4.226,0,0,1,2.741-.825,8.033,8.033,0,0,1,3.283.724l-.6,1.529a7.178,7.178,0,0,0-2.732-.644,2.106,2.106,0,0,0-1.383.4,1.313,1.313,0,0,0-.469,1.05,1.461,1.461,0,0,0,.188.765,1.9,1.9,0,0,0,.619.6,10.317,10.317,0,0,0,1.555.747,8.5,8.5,0,0,1,1.852.98,2.878,2.878,0,0,1,.864,1.03,3.1,3.1,0,0,1,.277,1.35A2.883,2.883,0,0,1,371.751,86.453Z" fill="#ee4423"></path>
      </g>
    </g>
    <g id="Group_21" data-name="Group 21">
      <g id="Group_20" data-name="Group 20">
        <path id="Path_109" data-name="Path 109" d="M131.716,28.282l-7.29,9.467h-13v26.93H100.161V37.749H83.077l7.29-9.467Z" fill="#fff"></path>
        <path id="Path_110" data-name="Path 110" d="M187.483,64.679H172.412L164.3,55.05H147v9.629H135.743V46.073h31.664a8.351,8.351,0,0,0,4.407-1.088,3.353,3.353,0,0,0,1.8-2.992,3.547,3.547,0,0,0-1.632-3.184,8.36,8.36,0,0,0-4.571-1.06H135.743l7.345-9.467h23.393a37.8,37.8,0,0,1,6.42.571,19.578,19.578,0,0,1,6.039,2.041,12.978,12.978,0,0,1,4.49,3.971,10.875,10.875,0,0,1,1.767,6.42,12.36,12.36,0,0,1-.651,4.026,11.068,11.068,0,0,1-4.871,6.012,12.288,12.288,0,0,1-4,1.5,26.474,26.474,0,0,1,2.068,1.8q1.142,1.089,3.046,2.991Z" fill="#fff"></path>
        <path id="Path_111" data-name="Path 111" d="M207.286,64.679H196.024v-36.4h11.262Z" fill="#fff"></path>
        <path id="Path_112" data-name="Path 112" d="M263.868,28.282l-7.29,9.467h-13v26.93H232.312V37.749H215.229l7.29-9.467Z" fill="#fff"></path>
        <path id="Path_113" data-name="Path 113" d="M291.943,27.684q13.272,0,19.939,4.515t6.666,14.254q0,9.793-6.639,14.309t-19.966,4.516q-13.386,0-19.995-4.516t-6.611-14.309q0-9.738,6.637-14.254T291.943,27.684Zm0,28.127a61.442,61.442,0,0,0,7.181-.353,12.75,12.75,0,0,0,4.76-1.388,6.086,6.086,0,0,0,2.639-2.856,11.758,11.758,0,0,0,.816-4.761,11.763,11.763,0,0,0-.816-4.76,5.955,5.955,0,0,0-2.639-2.829,13.138,13.138,0,0,0-4.76-1.36,73.022,73.022,0,0,0-14.363,0A13.149,13.149,0,0,0,280,38.864a5.955,5.955,0,0,0-2.639,2.829,11.8,11.8,0,0,0-.814,4.76,11.8,11.8,0,0,0,.814,4.761A6.086,6.086,0,0,0,280,54.07a12.762,12.762,0,0,0,4.762,1.388A61.449,61.449,0,0,0,291.943,55.811Z" fill="#fff"></path>
        <path id="Path_114" data-name="Path 114" d="M365.5,65.278a5.868,5.868,0,0,1-4.516-1.959L338.678,43.3V64.679H328.45V34.485a8.383,8.383,0,0,1,.516-3.1,5.966,5.966,0,0,1,1.359-2.122,5.193,5.193,0,0,1,1.959-1.2,7.107,7.107,0,0,1,2.314-.381,6.593,6.593,0,0,1,2.094.353,7.234,7.234,0,0,1,2.42,1.6L361.42,49.663V28.282H371.7V58.423a8.4,8.4,0,0,1-.515,3.1,6.269,6.269,0,0,1-1.36,2.149A5,5,0,0,1,367.84,64.9,7.386,7.386,0,0,1,365.5,65.278Z" fill="#fff"></path>
      </g>
    </g>
  </g>
</svg>